<svg xmlns="http://www.w3.org/2000/svg" width="14.006" height="31.988" viewBox="0 0 14.006 31.988">
  <path id="Shape_7" data-name="Shape 7" d="M1388.244,71.484a5.2,5.2,0,0,1-5.647-.748l-.017.018c-8.781-8.826-8.812-20.654.037-29.548l.025.025a5.215,5.215,0,0,1,5.6-.723c2.6,1.216,1.839,3.442.622,6.058s-2.427,4.631-5.027,3.416a5.076,5.076,0,0,1-.829-.5,12.573,12.573,0,0,0,.022,13.044,5.029,5.029,0,0,1,.838-.5c2.6-1.223,3.809.79,5.019,3.4S1390.848,70.262,1388.244,71.484Z" transform="translate(-1375.987 -40.006)" fill="#da3038"/>
</svg>
